<svg width="47" height="24" viewBox="0 0 47 24" fill="none" xmlns="http://www.w3.org/2000/svg">
<g clip-path="url(#clip0_115_509)">
<g filter="url(#filter0_d_115_509)">
<path d="M9 12L45 12" stroke="#FF39B0" stroke-width="1.5"/>
</g>
<g filter="url(#filter1_d_115_509)">
<mask id="path-2-outside-1_115_509" maskUnits="userSpaceOnUse" x="36" y="3" width="12" height="18" fill="black">
<rect fill="white" x="36" y="3" width="12" height="18"/>
<path d="M38 5L45 12L38 19"/>
</mask>
<path d="M45 12L46.0607 13.0607L47.1213 12L46.0607 10.9393L45 12ZM36.9393 6.06066L43.9393 13.0607L46.0607 10.9393L39.0607 3.93934L36.9393 6.06066ZM43.9393 10.9393L36.9393 17.9393L39.0607 20.0607L46.0607 13.0607L43.9393 10.9393Z" fill="#FF39B0" mask="url(#path-2-outside-1_115_509)"/>
</g>
</g>
<defs>
<filter id="filter0_d_115_509" x="3" y="5.25" width="48" height="13.5" filterUnits="userSpaceOnUse" color-interpolation-filters="sRGB">
<feFlood flood-opacity="0" result="BackgroundImageFix"/>
<feColorMatrix in="SourceAlpha" type="matrix" values="0 0 0 0 0 0 0 0 0 0 0 0 0 0 0 0 0 0 127 0" result="hardAlpha"/>
<feOffset/>
<feGaussianBlur stdDeviation="3"/>
<feColorMatrix type="matrix" values="0 0 0 0 1 0 0 0 0 0.223529 0 0 0 0 0.690196 0 0 0 1 0"/>
<feBlend mode="normal" in2="BackgroundImageFix" result="effect1_dropShadow_115_509"/>
<feBlend mode="normal" in="SourceGraphic" in2="effect1_dropShadow_115_509" result="shape"/>
</filter>
<filter id="filter1_d_115_509" x="30.9395" y="-2.06066" width="22.1816" height="28.1213" filterUnits="userSpaceOnUse" color-interpolation-filters="sRGB">
<feFlood flood-opacity="0" result="BackgroundImageFix"/>
<feColorMatrix in="SourceAlpha" type="matrix" values="0 0 0 0 0 0 0 0 0 0 0 0 0 0 0 0 0 0 127 0" result="hardAlpha"/>
<feOffset/>
<feGaussianBlur stdDeviation="3"/>
<feColorMatrix type="matrix" values="0 0 0 0 1 0 0 0 0 0.223529 0 0 0 0 0.690196 0 0 0 1 0"/>
<feBlend mode="normal" in2="BackgroundImageFix" result="effect1_dropShadow_115_509"/>
<feBlend mode="normal" in="SourceGraphic" in2="effect1_dropShadow_115_509" result="shape"/>
</filter>
<clipPath id="clip0_115_509">
<rect width="47" height="24" fill="white"/>
</clipPath>
</defs>
</svg>
