<svg width="1428" height="292" viewBox="0 0 1428 292" fill="none" xmlns="http://www.w3.org/2000/svg">
<path d="M-12 292.31C467.321 292.31 946.641 292.31 1425.96 292.31" stroke="url(#paint0_linear_115_710)" stroke-miterlimit="10"/>
<path d="M-12 284.147C230.716 284.208 473.312 282.749 715.968 281.097C820.959 280.379 926.669 280.615 1031.65 282.129C1163.06 284.021 1294.54 282.238 1425.92 284.147" stroke="url(#paint1_linear_115_710)" stroke-miterlimit="10"/>
<path d="M-12 276.106C56.7725 276.106 125.565 276.397 194.328 276.254C255.78 276.128 317.093 273.391 378.526 272.919C492.964 272.041 607.382 273.061 721.81 272.025C823.376 271.103 925.99 268.662 1027.49 272.387C1086.64 274.581 1145.19 275.579 1204.4 276.484C1278.29 277.614 1352.1 274.548 1425.96 276.106" stroke="url(#paint2_linear_115_710)" stroke-miterlimit="10"/>
<path d="M-12 268.174C55.7839 268.174 123.748 268.799 191.512 268.125C255.191 267.488 318.501 263.029 382.131 261.882C496.789 259.814 610.547 265.722 725.085 264.669C825.872 263.758 925.231 256.364 1026.13 262.979C1085.1 266.846 1142.25 269.874 1201.66 270.758C1276.55 271.855 1351.08 266.517 1425.96 268.174" stroke="url(#paint3_linear_115_710)" stroke-miterlimit="10"/>
<path d="M-12 260.396C54.5557 260.396 121.601 261.394 188.106 260.017C254.612 258.64 320.169 252.305 386.475 250.259C446.75 248.399 506.175 248.898 566.13 252.946C619.864 256.578 672.06 259.2 726.233 258.805C773.716 258.454 818.203 254.493 865.097 250.802C918.761 246.572 974.012 248.547 1027.18 253.934C1085.69 259.869 1140.89 265.546 1200.64 266.194C1276.01 267.016 1350.54 258.975 1425.96 260.396" stroke="url(#paint4_linear_115_710)" stroke-miterlimit="10"/>
<path d="M-12 252.727C53.1177 252.727 119.224 254.071 184.232 251.921C253.693 249.628 321.977 241.323 391.288 238.207C450.799 235.497 510.708 237.355 569.286 243.726C621.582 249.332 672.14 254.34 725.594 254.109C775.094 253.895 819.881 247.011 867.933 241.444C922.475 235.124 976.449 237.522 1030.16 245.185C1087.73 253.413 1140.88 262.277 1201.04 262.513C1276.54 262.815 1350.33 251.805 1425.96 252.733" stroke="url(#paint5_linear_115_710)" stroke-miterlimit="10"/>
<path d="M-12 245.179C51.5799 245.146 116.718 246.825 180.078 243.89C252.815 240.55 323.874 230.242 396.341 225.936C457.155 222.327 513.355 225.684 572.012 234.751C622.231 242.519 670.872 250.297 723.547 250.313C775.633 250.313 821.968 239.974 871.398 232.426C927.708 223.83 979.634 226.331 1034.66 236.715C1090.66 247.28 1142.07 259.754 1202.57 259.48C1277.96 259.107 1350.36 244.927 1425.96 245.179" stroke="url(#paint6_linear_115_710)" stroke-miterlimit="10"/>
<path d="M-12 237.752C49.9721 237.703 114.131 239.568 175.734 235.958C251.806 231.504 325.522 219.206 401.324 213.655C462.987 209.14 516.511 213.967 574.219 226.046C621.831 236.013 668.595 246.814 720.412 247.154C775.174 247.516 824.544 233.314 875.192 223.753C933.679 212.711 983.619 215.059 1040.14 228.515C1093.96 241.328 1144.15 257.779 1204.9 256.858C1280.03 255.717 1350.52 238.278 1425.94 237.752" stroke="url(#paint7_linear_115_710)" stroke-miterlimit="10"/>
<path d="M-12 230.445C48.3844 230.38 111.545 232.365 171.48 228.158C250.807 222.59 327.189 208.361 406.147 201.57C469.058 196.156 519.546 202.355 576.036 217.615C620.713 229.683 665.589 243.621 716.687 244.356C774.126 245.174 827.46 226.726 879.276 215.388C906.418 209.48 935.027 203.946 964.616 205.218C993.574 206.469 1021 213.166 1046.32 220.577C1097.37 235.481 1147.1 255.996 1207.84 254.428C1282.63 252.491 1350.77 231.806 1425.97 230.462" stroke="url(#paint8_linear_115_710)" stroke-miterlimit="10"/>
<path d="M-11.9507 223.265C46.9658 223.183 109.098 225.218 167.395 220.522C249.748 213.907 328.517 197.84 410.401 189.875C474.749 183.611 522.322 191.066 577.284 209.469C618.955 223.424 661.954 240.478 712.592 241.635C772.507 243.001 830.425 220.215 883.23 207.319C910.891 200.561 941.398 193.435 972.294 195.004C1001.25 196.474 1028.38 204.505 1052.6 212.832C1100.88 229.441 1150.1 254.098 1211 251.899C1285.47 249.2 1350.98 225.371 1425.98 223.265" stroke="url(#paint9_linear_115_710)" stroke-miterlimit="10"/>
<path d="M-11.9399 216.211C45.5685 216.112 106.782 218.147 163.591 213.106C248.631 205.553 329.516 187.791 413.936 178.762C446.081 175.328 476.548 173.342 508.033 179.365C533.687 184.275 556.255 192.892 578.024 201.603C616.968 217.176 658.08 237.149 708.599 238.712C770.711 240.637 833.282 213.72 886.946 199.508C915.086 192.053 947.47 183.419 979.545 185.246C1008.63 186.891 1035.41 196.145 1058.58 205.284C1104.3 223.298 1152.93 251.811 1214.15 249.052C1288.36 245.7 1351.15 218.921 1426.02 216.183" stroke="url(#paint10_linear_115_710)" stroke-miterlimit="10"/>
<path d="M-11.9302 209.272C44.37 209.168 104.754 211.192 160.256 205.92C247.452 197.637 329.875 178.351 416.423 168.471C448.677 164.791 479.054 162.509 510.379 169.344C535.793 174.922 557.453 184.494 578.163 194.061C614.821 210.972 654.215 233.451 704.984 235.344C737.428 236.556 770.051 227.258 798.072 219.387C829.157 210.654 859.045 200.704 890.121 191.96C918.681 183.929 952.632 174.078 985.785 176.135C1015.08 177.95 1041.44 188.148 1063.78 197.966C1107.4 217.165 1155.12 248.904 1216.93 245.689C1291 241.85 1351.17 212.404 1426.03 209.25" stroke="url(#paint11_linear_115_710)" stroke-miterlimit="10"/>
<path d="M-11.9199 202.459C43.3717 202.355 103.117 204.384 157.55 199.014C246.284 190.265 329.666 169.662 417.661 159.168C449.766 155.328 480.372 152.876 511.378 160.199C536.762 166.195 557.772 176.59 577.734 186.814C612.864 204.801 650.771 229.145 702.158 231.246C735.491 232.596 769.063 222.524 797.523 214.198C829.647 204.79 860.433 194.083 892.558 184.664C921.517 176.167 956.467 165.542 990.509 167.709C1020.12 169.596 1046.02 180.429 1067.76 190.813C1110.03 210.994 1156.28 245.009 1219.08 241.581C1293.16 237.538 1351.03 205.728 1426.04 202.481" stroke="url(#paint12_linear_115_710)" stroke-miterlimit="10"/>
<path d="M-11.9004 195.767C42.6123 195.679 101.988 197.747 155.622 192.421C245.105 183.534 328.717 161.85 417.391 151.072C449.056 147.232 480.232 144.731 510.799 152.103C536.392 158.274 557.113 169.228 576.705 179.886C611.276 198.723 648.064 224.044 700.53 226.084C734.601 227.412 768.264 217.236 797.123 208.531C829.926 198.657 861.282 187.401 894.075 177.517C923.404 168.674 958.504 157.879 993.245 160.029C1023.2 161.883 1048.67 172.915 1070.14 183.743C1112.08 204.889 1156.12 239.765 1220.39 236.37C1294.66 232.447 1350.78 198.679 1426.1 195.778" stroke="url(#paint13_linear_115_710)" stroke-miterlimit="10"/>
<path d="M-11.8901 189.184C42.4229 188.998 101.609 191.323 155.013 185.893C243.887 176.836 326.43 154.505 414.406 143.474C445.981 139.519 477.137 137.15 507.683 144.434C533.646 150.638 554.777 161.724 574.658 172.514C609.868 191.625 647.046 217.269 700.2 219.661C734.512 221.202 767.974 211.153 796.963 202.311C829.817 192.283 861.112 180.808 893.956 170.775C923.424 161.768 958.344 151.121 993.345 153.425C1023.5 155.411 1048.82 166.464 1070.33 177.412C1112.44 198.855 1155.64 233.27 1220.42 230.072C1294.9 226.408 1350.44 191.718 1426.07 189.184" stroke="url(#paint14_linear_115_710)" stroke-miterlimit="10"/>
<path d="M-11.8804 182.75C42.6623 182.41 101.669 185.344 155.263 179.535C242.559 170.073 323.245 147.375 409.612 135.954C441.567 131.725 471.904 129.525 502.89 136.859C529.322 143.107 551.201 154.078 571.812 164.774C608.191 183.677 646.936 209.579 700.09 212.843C734.192 214.938 767.774 204.861 796.514 196.024C828.968 186.047 859.794 174.56 892.238 164.571C921.646 155.515 956.567 144.95 991.517 147.687C1021.58 150.04 1047.27 161.253 1069.08 172.081C1111.41 193.09 1155.86 226.858 1219.86 223.753C1294.52 220.127 1350.24 185.24 1426.05 182.75" stroke="url(#paint15_linear_115_710)" stroke-miterlimit="10"/>
<path d="M-11.8604 176.425C42.9919 176.019 101.838 179.771 155.762 173.622C241.281 163.869 319.859 140.874 404.41 129.19C436.634 124.725 466.262 122.734 497.597 129.975C524.439 136.179 547.197 146.864 568.577 157.479C606.174 176.129 646.706 201.938 699.811 205.991C733.603 208.575 766.926 198.707 795.405 189.908C827.31 180.035 857.487 168.619 889.372 158.751C918.69 149.678 953.281 139.415 988.072 142.542C1018.17 145.252 1044.31 156.513 1066.61 167.226C1109.5 187.796 1155.41 220.72 1218.92 217.659C1293.91 214.049 1349.94 178.937 1426.08 176.458" stroke="url(#paint16_linear_115_710)" stroke-miterlimit="10"/>
<path d="M-11.8403 170.221C43.3914 169.832 102.208 174.577 156.511 168.115C240.073 158.181 316.364 134.95 398.927 123.063C431.282 118.406 460.35 116.656 491.946 123.689C519.267 129.766 542.873 140.145 565.082 150.567C604.246 168.883 646.197 194.319 699.451 199.118C732.844 202.124 765.578 192.684 793.778 183.946C824.983 174.269 854.392 162.953 885.578 153.266C914.786 144.188 948.708 134.435 983.289 137.907C1013.53 140.951 1040.21 152.169 1063.18 162.734C1106.92 182.849 1154.48 214.763 1217.65 211.718C1293.09 208.081 1349.55 172.734 1426.15 170.238" stroke="url(#paint17_linear_115_710)" stroke-miterlimit="10"/>
<path d="M-11.8301 164.138C43.851 163.831 102.648 169.717 157.44 162.975C238.904 152.953 312.77 129.514 393.206 117.561C425.54 112.745 454.209 111.248 485.964 117.973C513.775 123.864 538.21 133.881 561.327 143.985C602.269 161.883 645.498 186.71 698.952 192.201C763.461 198.833 828.648 164.319 880.924 148.049C910.023 138.987 943.026 129.909 977.308 133.71C1007.78 137.095 1035.03 148.203 1058.78 158.609C1103.64 178.252 1152.97 209.025 1215.98 205.964C1291.98 202.278 1348.98 166.672 1426.13 164.138" stroke="url(#paint18_linear_115_710)" stroke-miterlimit="10"/>
<path d="M-11.8101 158.181C44.3603 158.011 103.167 165.158 158.528 158.181C237.806 148.153 309.125 124.605 387.324 112.614C419.548 107.677 447.938 106.448 479.783 112.784C508.103 118.428 533.387 128 557.413 137.786C600.132 155.175 644.649 179.173 698.373 185.344C761.903 192.629 824.285 159.113 875.592 143.107C903.962 134.27 937.035 125.362 970.378 129.915C1001.33 134.138 1028.61 144.379 1053.71 154.802C1099.85 173.946 1151.08 203.474 1214.09 200.38C1290.74 196.622 1348.35 160.748 1426.15 158.142" stroke="url(#paint19_linear_115_710)" stroke-miterlimit="10"/>
<path d="M-11.7905 152.339C44.9091 152.339 103.776 160.858 159.756 153.622C236.777 143.666 305.48 120.019 381.372 108.094C513.185 87.3644 581.948 163.891 697.734 178.537C760.145 186.442 819.371 154.133 869.75 138.45C897.99 129.673 929.785 121.681 962.708 126.492C994.054 131.072 1021.96 141.088 1048.08 151.313C1095.66 169.963 1148.87 198.147 1212.01 195.004C1289.37 191.164 1347.66 155.01 1426.18 152.339" stroke="url(#paint20_linear_115_710)" stroke-miterlimit="10"/>
<path d="M-11.7705 146.623C45.4783 146.854 104.445 156.771 161.094 149.322C235.818 139.498 301.895 115.795 375.421 103.974C504.508 83.2285 583.126 156.085 697.045 171.779C758.378 180.238 814.049 149.36 863.509 133.979C891.629 125.236 922.036 118.297 954.49 123.327C986.255 128.264 1014.87 138.028 1042.04 148.038C1091.15 166.14 1146.39 192.969 1209.8 189.755C1287.92 185.8 1346.93 149.382 1426.21 146.623" stroke="url(#paint21_linear_115_710)" stroke-miterlimit="10"/>
<path d="M-11.7505 141.028C46.0675 141.494 105.154 152.86 162.512 145.224C234.95 135.581 298.32 111.851 369.569 100.189C495.92 79.5038 584.265 148.378 696.336 165.12C756.57 174.116 808.457 144.758 857.048 129.679C885.068 120.984 913.967 115.159 945.922 120.353C978.126 125.614 1007.48 135.164 1035.72 144.928C1086.41 162.481 1143.69 187.912 1207.42 184.626C1286.31 180.55 1346.1 143.858 1426.17 141.006" stroke="url(#paint22_linear_115_710)" stroke-miterlimit="10"/>
<path d="M-11.7305 135.553C46.6468 136.261 105.903 149.08 164.02 141.286C234.221 131.862 294.975 108.121 363.927 96.6566C487.592 76.0918 585.383 140.83 695.617 158.576C754.763 168.098 802.755 140.304 850.517 125.515C878.418 116.876 905.909 112.197 937.334 117.578C969.988 123.173 1000.12 132.482 1029.41 142.004C1081.69 159.009 1140.99 183.035 1205.11 179.667C1284.83 175.476 1345.37 138.527 1426.23 135.553" stroke="url(#paint23_linear_115_710)" stroke-miterlimit="10"/>
<path d="M-11.7104 130.205C47.206 131.149 106.662 145.389 165.448 137.462C233.492 128.285 291.679 104.55 358.435 93.3105C479.653 72.9048 586.512 133.431 694.958 152.169C753.025 162.207 797.113 135.976 844.096 121.451C871.877 112.866 898.02 109.333 928.846 114.868C961.949 120.803 992.835 129.898 1023.18 139.157C1077 155.581 1138.27 178.252 1202.84 174.812C1283.35 170.506 1344.64 133.255 1426.29 130.216" stroke="url(#paint24_linear_115_710)" stroke-miterlimit="10"/>
<path d="M-11.6904 124.972C47.8152 126.141 107.411 141.747 166.916 133.71C232.913 124.797 288.644 101.078 353.322 90.0797C472.214 69.8605 587.62 126.185 694.249 145.915C751.348 156.48 791.491 131.703 837.825 117.468C865.516 108.966 890.291 106.497 920.598 112.191C954.13 118.467 985.766 127.38 1017.1 136.371C1072.39 152.229 1135.55 173.567 1200.57 170.04C1281.85 165.624 1343.85 128.104 1426.25 124.972" stroke="url(#paint25_linear_115_710)" stroke-miterlimit="10"/>
<path d="M-11.6704 119.865C48.3944 121.226 108.16 138.115 168.334 129.997C232.444 121.352 285.868 97.633 348.609 86.8926C409.473 76.4704 474.221 88.2365 531.07 100.809C585.892 112.937 638.009 128.845 693.65 139.843C750.03 150.989 785.989 127.38 831.974 113.513C893.037 95.1097 955.578 118.45 1011.47 133.584C1068.1 148.899 1133.04 168.965 1198.48 165.361C1280.48 160.852 1343.16 123.069 1426.29 119.86" stroke="url(#paint26_linear_115_710)" stroke-miterlimit="10"/>
<path d="M-11.6504 114.874C48.9737 116.393 108.749 134.451 169.693 126.272C232.094 117.891 283.391 94.1883 344.445 83.6838C404.749 73.2944 471.205 84.5779 528.324 96.0917C584.255 107.37 637.489 122.263 693.12 133.979C748.752 145.696 781.246 123.244 826.641 109.575C886.317 91.6102 951.464 116.706 1006.39 130.776C1064.2 145.586 1130.79 164.434 1196.6 160.781C1279.23 156.19 1342.53 118.154 1426.27 114.874" stroke="url(#paint27_linear_115_710)" stroke-miterlimit="10"/>
<path d="M-11.6304 110.008C49.5629 111.654 109.288 130.721 170.941 122.493C231.854 114.369 281.264 90.6775 340.7 80.3759C400.545 70.036 468.519 80.8586 525.898 91.418C582.817 101.901 637.12 115.899 692.661 128.335C718.864 134.199 738.067 134.44 763.401 126.876C783.992 120.726 801.407 111.796 821.968 105.603C849.399 97.3313 871.248 97.5616 899.977 103.711C934.498 111.111 968.131 119.618 1002 127.885C1060.79 142.191 1128.82 159.942 1194.93 156.255C1278.13 151.615 1341.96 113.327 1426.3 110.008" stroke="url(#paint28_linear_115_710)" stroke-miterlimit="10"/>
<path d="M-11.6104 105.258C50.1521 106.903 109.698 126.881 172.069 118.626C231.775 110.721 279.497 86.9421 337.734 76.9038C397.27 66.6406 466.492 77.0135 524.1 86.7775C581.709 96.5415 637.02 109.816 692.382 122.981C717.965 129.064 736.669 129.926 761.783 122.4C781.695 116.432 798.311 107.622 818.173 101.61C845.455 93.349 866.964 94.2267 895.194 100.579C929.885 108.384 964.037 116.876 998.548 124.912C1058.07 138.768 1127.43 155.531 1193.64 151.834C1277.3 147.166 1341.56 108.648 1426.31 105.307" stroke="url(#paint29_linear_115_710)" stroke-miterlimit="10"/>
<path d="M-11.5908 100.639C50.7508 102.241 109.957 122.91 173.027 114.632C231.844 106.903 278.079 82.9431 335.507 73.2011C394.963 63.1025 464.934 73.0036 522.901 82.0709C581.339 91.2041 637.13 103.925 692.261 117.814C717.326 124.122 735.82 125.449 760.744 117.923C780.117 112.082 796.064 103.327 815.377 97.43C842.528 89.1416 864.018 90.4855 891.818 97.079C926.559 105.307 961.11 113.82 996.151 121.686C1056.07 135.142 1126.59 151.039 1192.74 147.369C1276.73 142.706 1341.3 103.969 1426.41 100.639" stroke="url(#paint30_linear_115_710)" stroke-miterlimit="10"/>
<path d="M-11.5708 96.1354C51.34 97.5891 110.037 118.757 173.806 110.458C232.014 102.882 277.25 78.8181 333.989 69.1912C393.255 59.142 464.145 68.8292 522.262 77.3315C581.299 85.971 637.339 98.3461 692.212 112.987C716.867 119.569 735.46 121.16 760.255 113.584C779.228 107.786 794.676 99.0262 813.619 93.1733C840.671 84.8136 862.46 86.3934 889.931 93.2885C924.602 101.988 959.413 110.562 994.843 118.296C1054.94 131.412 1126.28 146.596 1192.16 142.981C1276.35 138.367 1341.08 99.4212 1426.39 96.1354" stroke="url(#paint31_linear_115_710)" stroke-miterlimit="10"/>
<path d="M-11.5405 91.7471C51.6898 93.0526 109.977 114.451 174.136 106.075C232.144 98.5051 277.11 74.4626 333.67 64.8906C392.876 54.8743 464.085 64.759 522.223 73.0803C581.469 81.5607 637.33 93.8425 692.272 108.549C716.837 115.131 735.69 116.503 760.315 108.977C779.159 103.217 794.507 94.5337 813.35 88.7576C840.312 80.4966 862.5 82.0325 889.712 89.1251C924.233 98.1211 959.084 106.761 994.663 114.418C1054.47 127.292 1126.74 142.306 1192.11 138.554C1276.18 133.738 1341.33 95.4497 1426.42 91.7636" stroke="url(#paint32_linear_115_710)" stroke-miterlimit="10"/>
<path d="M-11.5205 87.4301C51.8497 88.6698 109.967 110.211 174.276 101.736C232.194 94.1003 277.39 70.2608 333.99 60.7491C393.196 50.7987 464.245 61.1167 522.293 69.4929C581.349 78.0172 636.97 90.277 692.292 104.287C744.658 117.545 770.611 97.1557 813.74 84.4406C840.701 76.4922 863.03 77.9404 889.992 85.0604C924.363 94.1387 959.154 102.756 994.723 110.326C1054.18 122.975 1127.39 138.06 1192.29 133.99C1276 128.735 1341.95 92.0049 1426.47 87.5124" stroke="url(#paint33_linear_115_710)" stroke-miterlimit="10"/>
<path d="M-11.5005 83.179C52.0594 84.3748 110.037 106.075 174.546 97.5288C232.464 89.8492 277.839 66.2621 334.469 56.8382C393.675 46.9644 464.515 57.6774 522.473 66.081C581.299 74.6108 636.711 86.8158 692.352 100.118C744.278 112.537 771.16 92.5097 814.319 80.3705C841.281 72.7677 863.809 74.172 890.531 81.303C924.742 90.4307 959.433 98.9824 994.993 106.421C1054.21 118.812 1128.14 133.738 1192.51 129.393C1275.8 123.776 1342.56 88.6424 1426.46 83.4368" stroke="url(#paint34_linear_115_710)" stroke-miterlimit="10"/>
<path d="M-11.4805 79.0046C52.2991 80.1675 110.187 102.043 174.935 93.4586C232.783 85.79 278.429 62.4716 335.098 53.1465C394.304 43.4373 464.914 54.4191 522.762 62.8282C581.309 71.3305 636.601 83.4423 692.442 96.0093C743.999 107.6 771.799 88.0171 815.068 76.4429C842.1 69.2186 864.797 70.6229 891.32 77.7484C925.341 86.8926 959.962 95.3456 995.462 102.608C1054.53 114.704 1128.91 129.262 1192.84 124.692C1275.72 118.774 1343.25 85.2908 1426.51 79.4434" stroke="url(#paint35_linear_115_710)" stroke-miterlimit="10"/>
<path d="M-11.4609 74.9016C52.5883 76.0535 110.366 98.0993 175.444 89.5092C233.242 81.8845 279.167 58.8294 335.887 49.6907C395.073 40.1516 465.323 51.3802 523.151 59.7619C581.379 68.2094 636.501 80.195 692.571 92.005C743.739 102.784 772.518 83.7166 815.986 72.7677C843.108 65.933 865.985 67.3866 892.338 74.4902C926.094 83.6807 960.732 91.8587 996.101 98.9879C1055.12 110.749 1129.71 124.769 1193.27 119.991C1275.61 113.831 1343.97 82.0381 1426.5 75.6366" stroke="url(#paint36_linear_115_710)" stroke-miterlimit="10"/>
<path d="M-11.4307 70.8753C52.9081 72.0273 110.666 94.2651 176.064 85.6859C233.812 78.1216 280.046 55.3736 336.836 46.4215C396.002 37.0963 465.953 48.5004 523.671 56.8437C581.589 65.2034 636.561 77.0245 692.761 88.0666C743.549 98.05 773.367 79.5477 817.095 69.2626C844.346 62.8502 867.394 64.3861 893.596 71.4568C927.149 80.5865 961.661 88.6112 996.95 95.4883C1056 106.881 1130.58 120.14 1193.8 115.236C1275.61 108.889 1344.75 78.8346 1426.56 71.934" stroke="url(#paint37_linear_115_710)" stroke-miterlimit="10"/>
<path d="M-11.4106 66.9369C53.2577 68.0943 111.006 90.524 176.773 82.0107C234.481 74.5396 281.045 52.1208 337.854 43.3826C396.99 34.2878 466.572 45.8291 524.24 54.101C581.728 62.3291 636.681 73.9636 692.941 84.2213C743.369 93.4203 774.285 75.5489 818.313 65.9605C845.714 59.9924 868.941 61.6435 895.034 68.7032C928.357 77.7456 962.715 85.5897 997.888 92.1861C1057.03 103.157 1131.39 115.532 1194.34 110.513C1275.58 104.04 1345.47 75.7574 1426.54 68.4344" stroke="url(#paint38_linear_115_710)" stroke-miterlimit="10"/>
<path d="M-11.3906 63.0751C53.6372 64.2599 111.435 86.9036 177.581 78.4342C235.25 71.0947 282.153 49.0325 339.023 40.5301C398.119 31.6987 467.321 43.3222 524.859 51.5009C581.948 59.6193 636.84 70.9905 693.121 80.4583C743.2 88.8784 775.274 71.6817 819.631 62.8283C847.202 57.3429 870.609 59.1201 896.622 66.1195C929.725 75.0547 963.939 82.6894 999.007 88.9662C1058.34 99.5146 1132.28 110.842 1195 105.735C1275.65 99.1525 1346.25 72.7075 1426.57 65.006" stroke="url(#paint39_linear_115_710)" stroke-miterlimit="10"/>
<path d="M-11.3711 59.3011C54.0462 60.5189 111.834 83.382 178.47 75.0277C236.098 67.798 283.371 46.1088 340.3 37.8697C399.347 29.3289 468.119 40.9909 525.578 49.0654C582.267 57.0357 637.11 68.1216 693.34 76.7885C743.079 84.4681 776.382 67.9735 821.089 59.8826C848.849 54.8634 872.436 56.8327 898.389 63.7223C931.26 72.5221 965.312 79.9235 1000.24 85.8614C1059.81 95.9271 1133.15 106.086 1195.69 100.919C1275.74 94.3363 1347.01 69.7069 1426.57 61.6873" stroke="url(#paint40_linear_115_710)" stroke-miterlimit="10"/>
<path d="M-11.3506 55.6205C54.4761 56.8822 112.324 79.9647 179.379 71.7256C237.037 64.6659 284.68 43.3497 341.679 35.3959C400.665 27.1678 468.958 38.8242 526.417 46.7781C582.687 54.5783 637.49 65.3461 693.66 73.2067C743.06 80.1238 777.661 64.3971 822.737 57.1071C850.697 52.5871 874.454 54.7483 900.387 61.6051C933.019 70.2503 966.901 77.3931 1001.68 82.9597C1061.48 92.5098 1134.08 101.418 1196.48 96.1905C1275.9 89.5696 1347.81 66.8601 1426.61 58.5662" stroke="url(#paint41_linear_115_710)" stroke-miterlimit="10"/>
<path d="M-11.3311 52.0495C54.905 53.3495 112.823 76.6515 180.467 68.5496C238.035 61.6489 286.077 40.7496 343.136 33.0975C402.053 25.193 469.877 36.822 527.205 44.6168C583.066 52.2305 637.829 62.6418 693.879 69.7015C742.97 75.889 778.939 60.9249 824.364 54.474C852.524 50.4642 876.47 52.8284 902.414 59.6358C934.799 68.1081 968.499 74.9721 1003.11 80.1457C1063.3 89.1417 1134.99 96.6567 1197.3 91.4401C1276.1 84.8576 1348.58 64.057 1426.63 55.5272" stroke="url(#paint42_linear_115_710)" stroke-miterlimit="10"/>
<path d="M-11.311 48.5388C55.4044 49.9156 113.432 73.4425 181.556 65.4941C239.114 58.7855 287.575 38.3031 344.674 30.9691C403.541 23.4157 470.855 34.9789 528.104 42.642C583.546 50.0637 638.268 60.0801 694.169 66.3389C742.97 71.8243 780.357 57.6665 826.122 52.0769C854.492 48.5937 878.617 51.2102 904.601 57.9243C936.74 66.2067 970.253 72.7736 1004.68 77.5346C1065.23 85.9382 1135.93 92.0105 1198.15 86.7884C1276.34 80.2334 1349.34 61.4185 1426.65 52.6912" stroke="url(#paint43_linear_115_710)" stroke-miterlimit="10"/>
<path d="M-11.291 45.1433C55.9037 46.5914 114.031 70.3432 182.724 62.5704C240.232 56.0592 289.083 36.0101 346.282 29.0108C405.069 21.8139 471.864 33.2948 529.023 40.7879C584.065 48.0012 638.718 57.5951 694.439 63.0531C742.99 67.8089 781.825 54.5069 827.939 49.751C856.509 46.8054 880.804 49.6797 906.877 56.3335C938.766 64.4099 972.085 70.6597 1006.31 74.9838C1067.22 82.7511 1136.84 87.315 1199.03 82.1148C1276.61 75.6366 1350.07 58.8074 1426.67 49.9046" stroke="url(#paint44_linear_115_710)" stroke-miterlimit="10"/>
<path d="M-11.271 41.852C56.3931 43.377 114.67 67.3536 183.892 59.7673C241.411 53.4646 290.671 33.8598 347.94 27.206C406.647 20.3877 472.913 31.7534 530.032 39.0709C584.684 46.0758 639.257 55.209 694.798 59.8715C743.14 63.9252 783.452 51.4899 829.897 47.6117C858.676 45.2036 883.141 48.3522 909.314 54.9073C940.955 62.7748 974.078 68.7019 1008.08 72.5812C1069.41 79.6738 1137.84 82.6798 1200.01 77.518C1276.9 71.1221 1350.8 56.3225 1426.69 47.2716" stroke="url(#paint45_linear_115_710)" stroke-miterlimit="10"/>
<path d="M-11.251 38.6651C56.9024 40.2723 115.33 64.4464 185.121 57.0905C242.639 51.0072 292.309 31.8467 349.647 25.555C408.274 19.1371 474.001 30.3602 531.05 37.4912C585.333 44.2766 639.806 52.9216 695.108 56.7943C743.279 60.1678 785.06 48.6156 831.804 45.6151C860.763 43.7555 885.418 47.1894 911.691 53.6621C943.086 61.3058 976.009 66.8936 1009.78 70.3103C1071.49 76.6898 1138.72 78.1105 1200.89 72.9872C1277.22 66.7009 1351.41 53.9474 1426.64 44.7648" stroke="url(#paint46_linear_115_710)" stroke-miterlimit="10"/>
<path d="M-11.231 35.5933C57.4217 37.2828 116.019 61.7037 186.369 54.5398C243.877 48.6759 293.986 29.9762 351.395 24.0739C409.922 18.04 475.1 29.137 532.139 36.0705C586.062 42.653 640.415 50.7659 695.487 53.8541C743.569 56.5529 786.778 45.9003 833.881 43.7829C863.05 42.4719 887.805 46.2075 914.327 52.5925C945.48 60.0085 978.202 65.2495 1011.73 68.1929C1152.53 80.9684 1290.5 59.4163 1426.78 42.4116" stroke="url(#paint47_linear_115_710)" stroke-miterlimit="10"/>
<path d="M-11.2109 32.6201C57.951 34.4028 116.718 59.0377 187.647 52.0987C245.156 46.4707 295.694 28.2372 353.173 22.6805C411.6 17.0306 476.228 27.9904 533.147 34.721C586.761 41.0785 640.955 48.6648 695.777 50.9522C743.849 52.9764 788.416 43.2727 835.868 42.0111C865.207 41.2431 890.171 45.3023 916.843 51.594C947.64 58.9061 980.343 63.5686 1013.55 66.1468C1150.76 76.8049 1293.88 57.0191 1426.75 40.1296" stroke="url(#paint48_linear_115_710)" stroke-miterlimit="10"/>
<path d="M-11.1914 29.7678C58.4798 31.6438 117.426 56.4926 188.935 49.784C246.453 44.3699 297.411 26.6247 354.96 21.441C413.287 16.1914 477.356 27.0031 534.215 33.5088C587.54 39.625 641.543 46.6738 696.116 48.2152C744.278 49.5755 790.103 40.7879 837.915 40.4204C867.423 40.1955 892.547 44.5729 919.429 50.7878C950.026 57.8585 982.51 62.1206 1015.43 64.238C1078.15 68.2697 1141.75 64.8359 1203.96 59.9045C1278.59 53.9858 1353.33 47.4911 1426.77 37.963" stroke="url(#paint49_linear_115_710)" stroke-miterlimit="10"/>
<path d="M-11.1709 27.0306C58.4105 28.9669 117.277 53.8596 188.716 47.727C246.005 42.7901 297.062 25.736 354.161 20.5633C411.879 15.3357 474.66 25.7086 531.02 31.9729C585.503 38.0069 640.695 44.7484 696.466 45.5932C745.976 46.3447 794.217 38.0398 843.617 39.0107C873.435 39.5976 898.29 44.9514 925.621 50.8975C954.011 57.0741 983.988 60.6122 1014.31 62.2852C1078.83 65.8452 1142.83 60.5957 1206.59 55.6424C1280.19 49.9266 1354.44 45.5273 1426.82 35.9718" stroke="url(#paint50_linear_115_710)" stroke-miterlimit="10"/>
<path d="M-11.1611 24.414C58.8996 26.4436 118.006 51.5448 189.974 45.648C247.273 40.9525 298.74 24.3482 355.928 19.554C413.527 14.7488 475.808 24.9735 532.089 31.0349C586.312 36.8823 641.294 43.1027 696.775 43.1027C746.575 43.1027 795.885 35.9004 845.694 37.738C875.552 38.8351 900.616 44.496 928.157 50.316C956.357 56.2732 986.135 59.4382 1016.19 60.6889C1080.93 63.3822 1143.82 56.4542 1207.57 51.638C1280.69 46.1142 1354.93 43.761 1426.8 34.0848" stroke="url(#paint51_linear_115_710)" stroke-miterlimit="10"/>
<path d="M-11.1411 21.9237C59.4488 24.0465 118.675 49.3506 191.252 43.6842C248.571 39.2082 300.437 23.0701 357.706 18.6489C415.185 14.2003 476.977 24.3537 533.227 30.2176C587.151 35.8511 641.923 41.512 697.115 40.7111C747.274 39.9816 797.552 33.8599 847.781 36.5532C877.679 38.1604 902.943 44.1231 930.664 49.8169C958.624 55.5601 988.262 58.3522 1018.04 59.1805C1082.95 60.9961 1144.8 52.4225 1208.53 47.7379C1281.19 42.3952 1355.32 42.099 1426.77 32.302" stroke="url(#paint52_linear_115_710)" stroke-miterlimit="10"/>
<path d="M-11.1211 19.5595C59.9581 21.7537 119.434 47.2717 192.52 41.8412C249.849 37.579 302.115 21.8798 359.474 17.8536C416.832 13.8273 478.125 23.8436 534.226 29.5045C588.02 34.9351 642.532 40.0639 697.424 38.4567C748.023 36.9756 799.16 31.951 849.808 35.4891C879.766 37.579 905.21 43.8653 933.19 49.4275C961.171 54.9897 990.429 57.3813 1019.93 57.7982C1084.84 58.7252 1145.87 48.5443 1209.53 43.9915C1281.77 38.8242 1355.84 40.5795 1426.81 30.64" stroke="url(#paint53_linear_115_710)" stroke-miterlimit="10"/>
<path d="M-11.1113 17.3214C60.4572 19.6253 120.143 45.2969 193.748 40.1187C251.107 36.065 303.752 20.8431 361.191 17.1569C418.39 13.4872 479.303 23.4377 535.304 28.9066C588.938 34.1397 643.151 38.7309 697.774 36.3338C748.871 34.0903 800.768 30.1573 851.865 34.5236C881.733 37.0798 907.476 43.6952 935.657 49.1312C963.317 54.463 992.576 56.5146 1021.75 56.531C1086.66 56.5749 1146.92 44.8362 1210.49 40.404C1282.38 35.3903 1356.28 39.1917 1426.81 29.0931" stroke="url(#paint54_linear_115_710)" stroke-miterlimit="10"/>
<path d="M-11.1011 15.2205C60.9468 17.6011 120.812 43.4867 194.947 38.5059C252.335 34.6662 305.36 19.8556 362.869 16.5644C420.008 13.2731 480.312 23.1468 536.323 28.4238C589.847 33.4484 643.79 37.5241 698.094 34.348C749.74 31.3311 802.306 28.4896 853.873 33.6678C883.73 36.6574 909.694 43.6074 938.083 48.9172C965.614 54.0625 994.623 55.7465 1023.53 55.3735C1088.34 54.5452 1147.97 41.3035 1211.45 36.9755C1282.93 32.1045 1356.64 37.9519 1426.84 27.6504" stroke="url(#paint55_linear_115_710)" stroke-miterlimit="10"/>
<path d="M-11.0811 13.2512C61.4162 15.7142 121.491 41.7753 196.115 37.0139C253.534 33.3442 306.958 19.0109 364.497 16.0323C421.516 13.0812 481.331 22.9384 537.312 28.0179C590.736 32.8505 644.41 36.416 698.403 32.4775C750.629 28.6707 803.844 26.9044 855.77 32.8779C885.598 36.3063 911.781 43.5854 940.42 48.7856C967.781 53.7224 996.64 55.0828 1025.3 54.3313C1089.94 52.6473 1149.05 37.9684 1212.42 33.7337C1283.57 28.9778 1357.06 36.8549 1426.92 26.3503" stroke="url(#paint56_linear_115_710)" stroke-miterlimit="10"/>
<path d="M-11.0713 11.4192C61.8254 13.9589 122.12 40.2065 197.223 35.6372C254.672 32.1375 308.396 18.2375 366.064 15.5881C422.983 12.977 482.359 22.8178 538.25 27.7218C591.604 32.4118 645.009 35.4397 698.683 30.7552C751.518 26.1475 805.211 25.4344 857.587 32.1814C887.355 36.0212 913.788 43.6294 942.617 48.7089C969.838 53.5031 998.537 54.496 1026.9 53.3879C1091.31 50.8701 1150.01 34.8363 1213.26 30.6565C1284.16 25.9884 1357.35 35.884 1426.9 25.1272" stroke="url(#paint57_linear_115_710)" stroke-miterlimit="10"/>
<path d="M-11.0615 9.73511C62.2945 12.3352 122.749 38.7583 198.272 34.37C255.77 31.0349 309.824 17.5463 367.552 15.2205C424.381 12.9331 483.298 22.7739 539.138 27.5242C592.443 32.0606 645.588 34.5839 698.962 29.1698C752.336 23.7558 806.559 24.0739 859.345 31.567C889.042 35.7852 915.735 43.6348 944.724 48.6924C971.685 53.4043 1000.42 53.9967 1028.43 52.5321C1092.58 49.2409 1150.96 31.9125 1214.08 27.7875C1284.67 23.1743 1357.65 35.0721 1426.9 24.0246" stroke="url(#paint58_linear_115_710)" stroke-miterlimit="10"/>
<path d="M-11.0015 8.16626C62.754 10.8212 123.338 37.4198 199.31 33.2016C256.789 30.0255 311.162 16.9429 368.96 14.9188C425.659 12.9331 484.197 22.8068 539.977 27.42C593.252 31.8083 646.147 33.8543 699.212 27.7272C753.275 21.4903 807.818 22.7903 860.982 31.0184C890.62 35.5932 917.542 43.739 946.701 48.7252C973.553 53.3165 1002.14 53.5798 1029.86 51.819C1060.11 49.8936 1089.6 45.4834 1118.64 40.5904C1149.97 35.3189 1182.22 27.2774 1214.86 25.149C1285.21 20.5578 1357.94 34.4303 1426.91 23.0536" stroke="url(#paint59_linear_115_710)" stroke-miterlimit="10"/>
<path d="M-11.0015 6.79492C63.1135 9.49373 123.807 36.2624 200.219 32.1868C257.748 29.115 312.41 16.3944 370.278 14.6719C426.888 12.966 485.005 22.9 540.736 27.3981C594.011 31.6876 646.696 33.251 699.451 26.4326C754.104 19.3674 809.006 21.611 862.56 30.5522C892.068 35.489 919.22 43.8817 948.528 48.7966C975.27 53.2781 1003.73 53.2452 1031.18 51.1827C1061.37 48.9227 1090.69 44.1285 1119.56 38.9229C1150.66 33.3168 1182.96 24.8583 1215.59 22.7135C1285.72 18.1113 1358.22 33.9312 1426.92 22.165" stroke="url(#paint60_linear_115_710)" stroke-miterlimit="10"/>
<path d="M-11.0015 5.5498C63.453 8.2925 124.307 35.2203 201.048 31.2653C258.616 28.2922 313.538 15.9556 371.456 14.48C427.986 13.0374 485.714 23.0866 541.405 27.4694C594.69 31.6548 647.185 32.7793 699.631 25.2753C754.913 17.3928 810.065 20.5194 863.998 30.1463C893.396 35.3903 920.748 44.0408 950.206 48.9008C976.838 53.2892 1005.13 52.982 1032.38 50.6507C1062.5 48.0726 1091.67 42.9163 1120.38 37.4254C1151.28 31.5176 1183.61 22.6862 1216.25 20.5085C1286.15 15.8459 1358.48 33.5911 1426.95 21.4026" stroke="url(#paint61_linear_115_710)" stroke-miterlimit="10"/>
<path d="M-11.0015 4.45825C63.7625 7.20095 124.716 34.3152 201.787 30.4535C259.425 27.5627 314.627 15.5662 372.605 14.332C429.075 13.1252 486.443 23.3225 542.074 27.6176C595.379 31.7261 647.725 32.4337 699.851 24.2879C755.702 15.5607 810.993 19.5102 865.306 29.7733C894.605 35.3191 922.136 44.1944 951.714 49.0106C978.256 53.3276 1006.45 52.7791 1033.44 50.2009C1063.52 47.3266 1092.52 41.8412 1121.11 36.087C1151.84 29.894 1184.19 20.7608 1216.87 18.5338C1286.63 13.7724 1358.78 33.3992 1426.95 20.7279" stroke="url(#paint62_linear_115_710)" stroke-miterlimit="10"/>
<path d="M-11.0015 3.52563C64.0521 6.26833 125.066 33.5527 202.436 29.7513C260.084 26.9208 315.536 15.2424 373.563 14.2002C429.973 13.2073 486.963 23.5857 542.594 27.8204C595.928 31.8796 648.174 32.2087 700.001 23.4321C756.431 13.8711 811.752 18.5666 866.465 29.466C895.633 35.2806 923.324 44.3589 953.012 49.1421C979.474 53.4098 1007.52 52.6528 1034.33 49.8552C1064.36 46.7121 1093.24 40.9305 1121.71 34.935C1152.3 28.4896 1184.62 19.1206 1217.39 16.8332C1287 11.9238 1359.06 33.3991 1426.96 20.1683" stroke="url(#paint63_linear_115_710)" stroke-miterlimit="10"/>
<path d="M-11.0015 2.74683C63.6827 5.48952 124.496 32.7739 201.417 29.2358C262.201 26.4437 320.958 13.8328 382.291 14.0906C434.727 14.31 487.342 23.7723 539.139 27.8425C594.171 32.165 646.846 32.0443 700.14 22.7904C759.237 12.5547 814.608 17.9359 871.567 30.108C897.101 35.5604 921.427 42.9986 947.15 48.1055C974.372 53.5086 1004.26 52.982 1032.27 49.9815C1064.05 46.5806 1094.48 40.1078 1124.46 33.5254C1154.68 26.8661 1186.8 17.4916 1219.38 15.2974C1288.29 10.6842 1359.94 33.4595 1426.95 19.7241" stroke="url(#paint64_linear_115_710)" stroke-miterlimit="10"/>
<path d="M-11.0015 2.13232C63.8924 4.83662 124.706 32.302 201.837 28.7584C262.641 25.9609 321.667 13.6462 382.98 14.0576C435.376 14.4141 487.722 24.1397 539.488 28.2154C594.56 32.5488 647.225 32.121 700.26 22.2637C759.956 11.1613 815.038 17.1733 872.466 29.9433C897.88 35.5932 922.275 43.0972 948.069 48.2096C975.23 53.6182 1004.99 52.9819 1032.84 49.8113C1064.6 46.1965 1094.91 39.444 1124.8 32.686C1154.98 25.8621 1187.09 16.3834 1219.75 14.0795C1288.53 9.26333 1360.26 33.7446 1426.96 19.3455" stroke="url(#paint65_linear_115_710)" stroke-miterlimit="10"/>
<path d="M-11.0015 1.6936C64.0422 4.35402 124.806 31.9839 202.156 28.3855C262.97 25.5551 322.126 13.5036 383.519 14.0467C435.895 14.5075 487.991 24.5457 539.738 28.6543C594.84 33.0426 647.585 32.346 700.28 21.8963C760.555 9.94912 815.197 16.4658 873.115 29.7733C898.469 35.5933 922.925 43.1741 948.738 48.3469C975.879 53.7829 1005.38 53.0972 1033.21 49.7785C1097.51 42.099 1155.12 18.0565 1220.03 13.2074C1288.69 8.0786 1360.61 34.211 1426.96 19.0878" stroke="url(#paint66_linear_115_710)" stroke-miterlimit="10"/>
<path d="M-11.0015 1.41455C64.162 4.02011 124.906 31.8146 202.346 28.1284C263.17 25.2266 322.526 13.4111 383.889 14.0419C436.274 14.5905 488.141 24.9798 539.868 29.1597C594.989 33.6138 647.914 32.7142 700.31 21.6995C761.114 8.91308 815.147 15.8082 873.614 29.6533C898.759 35.594 923.274 43.4656 949.147 48.4353C976.628 53.7068 1005.24 53.2789 1033.37 49.8122C1097.78 41.8693 1155.07 17.8049 1220.21 12.6047C1288.78 7.11936 1361.01 34.848 1426.92 18.9239" stroke="url(#paint67_linear_115_710)" stroke-miterlimit="10"/>
<path d="M-11.0015 1.30957C64.2419 3.83834 124.876 31.7974 202.396 27.9741C263.22 24.9735 322.656 13.3555 384.138 14.0357C436.534 14.6171 488.201 25.4453 539.917 29.7239C595.039 34.2823 648.244 33.2345 700.33 21.6659C761.603 8.04563 814.878 15.1876 873.904 29.5593C927.827 42.6804 972.255 57.6171 1033.32 49.9266C1097.9 41.7918 1154.92 17.9303 1220.29 12.3133C1288.78 6.42744 1361.39 35.6536 1427 18.8957" stroke="url(#paint68_linear_115_710)" stroke-miterlimit="10"/>
<defs>
<linearGradient id="paint0_linear_115_710" x1="1.03667e+06" y1="393.98" x2="1.03667e+06" y2="319.76" gradientUnits="userSpaceOnUse">
<stop stop-color="#592CB8"/>
<stop offset="1" stop-color="#2C2C32"/>
</linearGradient>
<linearGradient id="paint1_linear_115_710" x1="1.03664e+06" y1="630.619" x2="1.03664e+06" y2="375.181" gradientUnits="userSpaceOnUse">
<stop stop-color="#592CB8"/>
<stop offset="1" stop-color="#2C2C32"/>
</linearGradient>
<linearGradient id="paint2_linear_115_710" x1="1.03667e+06" y1="916.585" x2="1.03667e+06" y2="444.853" gradientUnits="userSpaceOnUse">
<stop stop-color="#592CB8"/>
<stop offset="1" stop-color="#2C2C32"/>
</linearGradient>
<linearGradient id="paint3_linear_115_710" x1="1.03667e+06" y1="1343.35" x2="1.03667e+06" y2="552.681" gradientUnits="userSpaceOnUse">
<stop stop-color="#592CB8"/>
<stop offset="1" stop-color="#2C2C32"/>
</linearGradient>
<linearGradient id="paint4_linear_115_710" x1="1.03667e+06" y1="2052.06" x2="1.03667e+06" y2="735.456" gradientUnits="userSpaceOnUse">
<stop stop-color="#592CB8"/>
<stop offset="1" stop-color="#2C2C32"/>
</linearGradient>
<linearGradient id="paint5_linear_115_710" x1="1.03667e+06" y1="2831.52" x2="1.03667e+06" y2="937.498" gradientUnits="userSpaceOnUse">
<stop stop-color="#592CB8"/>
<stop offset="1" stop-color="#2C2C32"/>
</linearGradient>
<linearGradient id="paint6_linear_115_710" x1="1.03667e+06" y1="3780.19" x2="1.03667e+06" y2="1184.51" gradientUnits="userSpaceOnUse">
<stop stop-color="#592CB8"/>
<stop offset="1" stop-color="#2C2C32"/>
</linearGradient>
<linearGradient id="paint7_linear_115_710" x1="1.03666e+06" y1="4777.68" x2="1.03666e+06" y2="1444.69" gradientUnits="userSpaceOnUse">
<stop stop-color="#592CB8"/>
<stop offset="1" stop-color="#2C2C32"/>
</linearGradient>
<linearGradient id="paint8_linear_115_710" x1="1.03668e+06" y1="5778.16" x2="1.03668e+06" y2="1705.79" gradientUnits="userSpaceOnUse">
<stop stop-color="#592CB8"/>
<stop offset="1" stop-color="#2C2C32"/>
</linearGradient>
<linearGradient id="paint9_linear_115_710" x1="1.03665e+06" y1="6729.18" x2="1.03665e+06" y2="1953.84" gradientUnits="userSpaceOnUse">
<stop stop-color="#592CB8"/>
<stop offset="1" stop-color="#2C2C32"/>
</linearGradient>
<linearGradient id="paint10_linear_115_710" x1="1.03667e+06" y1="7672.58" x2="1.03667e+06" y2="2199.64" gradientUnits="userSpaceOnUse">
<stop stop-color="#592CB8"/>
<stop offset="1" stop-color="#2C2C32"/>
</linearGradient>
<linearGradient id="paint11_linear_115_710" x1="1.03667e+06" y1="8397.07" x2="1.03667e+06" y2="2387.55" gradientUnits="userSpaceOnUse">
<stop stop-color="#592CB8"/>
<stop offset="1" stop-color="#2C2C32"/>
</linearGradient>
<linearGradient id="paint12_linear_115_710" x1="1.03667e+06" y1="8933.69" x2="1.03667e+06" y2="2525.52" gradientUnits="userSpaceOnUse">
<stop stop-color="#592CB8"/>
<stop offset="1" stop-color="#2C2C32"/>
</linearGradient>
<linearGradient id="paint13_linear_115_710" x1="1.0367e+06" y1="9219.91" x2="1.0367e+06" y2="2596.87" gradientUnits="userSpaceOnUse">
<stop stop-color="#592CB8"/>
<stop offset="1" stop-color="#2C2C32"/>
</linearGradient>
<linearGradient id="paint14_linear_115_710" x1="1.03667e+06" y1="9346.66" x2="1.03667e+06" y2="2625.51" gradientUnits="userSpaceOnUse">
<stop stop-color="#592CB8"/>
<stop offset="1" stop-color="#2C2C32"/>
</linearGradient>
<linearGradient id="paint15_linear_115_710" x1="1.03665e+06" y1="9475.14" x2="1.03665e+06" y2="2654.61" gradientUnits="userSpaceOnUse">
<stop stop-color="#592CB8"/>
<stop offset="1" stop-color="#2C2C32"/>
</linearGradient>
<linearGradient id="paint16_linear_115_710" x1="1.03666e+06" y1="9547.61" x2="1.03666e+06" y2="2669.15" gradientUnits="userSpaceOnUse">
<stop stop-color="#592CB8"/>
<stop offset="1" stop-color="#2C2C32"/>
</linearGradient>
<linearGradient id="paint17_linear_115_710" x1="1.03669e+06" y1="9568.06" x2="1.03669e+06" y2="2670.15" gradientUnits="userSpaceOnUse">
<stop stop-color="#592CB8"/>
<stop offset="1" stop-color="#2C2C32"/>
</linearGradient>
<linearGradient id="paint18_linear_115_710" x1="1.03667e+06" y1="9542.96" x2="1.03667e+06" y2="2659.32" gradientUnits="userSpaceOnUse">
<stop stop-color="#592CB8"/>
<stop offset="1" stop-color="#2C2C32"/>
</linearGradient>
<linearGradient id="paint19_linear_115_710" x1="1.03667e+06" y1="9476.59" x2="1.03667e+06" y2="2637.77" gradientUnits="userSpaceOnUse">
<stop stop-color="#592CB8"/>
<stop offset="1" stop-color="#2C2C32"/>
</linearGradient>
<linearGradient id="paint20_linear_115_710" x1="1.03668e+06" y1="9324.96" x2="1.03668e+06" y2="2593.98" gradientUnits="userSpaceOnUse">
<stop stop-color="#592CB8"/>
<stop offset="1" stop-color="#2C2C32"/>
</linearGradient>
<linearGradient id="paint21_linear_115_710" x1="1.03669e+06" y1="9223.35" x2="1.03669e+06" y2="2563.43" gradientUnits="userSpaceOnUse">
<stop stop-color="#592CB8"/>
<stop offset="1" stop-color="#2C2C32"/>
</linearGradient>
<linearGradient id="paint22_linear_115_710" x1="1.03664e+06" y1="9100.68" x2="1.03664e+06" y2="2527.44" gradientUnits="userSpaceOnUse">
<stop stop-color="#592CB8"/>
<stop offset="1" stop-color="#2C2C32"/>
</linearGradient>
<linearGradient id="paint23_linear_115_710" x1="1.03667e+06" y1="8970.47" x2="1.03667e+06" y2="2489.59" gradientUnits="userSpaceOnUse">
<stop stop-color="#592CB8"/>
<stop offset="1" stop-color="#2C2C32"/>
</linearGradient>
<linearGradient id="paint24_linear_115_710" x1="1.0367e+06" y1="8832.8" x2="1.0367e+06" y2="2449.87" gradientUnits="userSpaceOnUse">
<stop stop-color="#592CB8"/>
<stop offset="1" stop-color="#2C2C32"/>
</linearGradient>
<linearGradient id="paint25_linear_115_710" x1="1.03666e+06" y1="8693.32" x2="1.03666e+06" y2="2409.73" gradientUnits="userSpaceOnUse">
<stop stop-color="#592CB8"/>
<stop offset="1" stop-color="#2C2C32"/>
</linearGradient>
<linearGradient id="paint26_linear_115_710" x1="1.03667e+06" y1="8511.71" x2="1.03667e+06" y2="2358.59" gradientUnits="userSpaceOnUse">
<stop stop-color="#592CB8"/>
<stop offset="1" stop-color="#2C2C32"/>
</linearGradient>
<linearGradient id="paint27_linear_115_710" x1="1.03664e+06" y1="8381.74" x2="1.03664e+06" y2="2321.09" gradientUnits="userSpaceOnUse">
<stop stop-color="#592CB8"/>
<stop offset="1" stop-color="#2C2C32"/>
</linearGradient>
<linearGradient id="paint28_linear_115_710" x1="1.03665e+06" y1="8265.9" x2="1.03665e+06" y2="2287.34" gradientUnits="userSpaceOnUse">
<stop stop-color="#592CB8"/>
<stop offset="1" stop-color="#2C2C32"/>
</linearGradient>
<linearGradient id="paint29_linear_115_710" x1="1.03664e+06" y1="8174.87" x2="1.03664e+06" y2="2260.19" gradientUnits="userSpaceOnUse">
<stop stop-color="#592CB8"/>
<stop offset="1" stop-color="#2C2C32"/>
</linearGradient>
<linearGradient id="paint30_linear_115_710" x1="1.0367e+06" y1="8096.33" x2="1.0367e+06" y2="2236.27" gradientUnits="userSpaceOnUse">
<stop stop-color="#592CB8"/>
<stop offset="1" stop-color="#2C2C32"/>
</linearGradient>
<linearGradient id="paint31_linear_115_710" x1="1.03667e+06" y1="8057.38" x2="1.03667e+06" y2="2222.8" gradientUnits="userSpaceOnUse">
<stop stop-color="#592CB8"/>
<stop offset="1" stop-color="#2C2C32"/>
</linearGradient>
<linearGradient id="paint32_linear_115_710" x1="1.03667e+06" y1="8038.69" x2="1.03667e+06" y2="2214.66" gradientUnits="userSpaceOnUse">
<stop stop-color="#592CB8"/>
<stop offset="1" stop-color="#2C2C32"/>
</linearGradient>
<linearGradient id="paint33_linear_115_710" x1="1.03669e+06" y1="7987.25" x2="1.03669e+06" y2="2197.85" gradientUnits="userSpaceOnUse">
<stop stop-color="#592CB8"/>
<stop offset="1" stop-color="#2C2C32"/>
</linearGradient>
<linearGradient id="paint34_linear_115_710" x1="1.03667e+06" y1="7909.95" x2="1.03667e+06" y2="2174.22" gradientUnits="userSpaceOnUse">
<stop stop-color="#592CB8"/>
<stop offset="1" stop-color="#2C2C32"/>
</linearGradient>
<linearGradient id="paint35_linear_115_710" x1="1.03669e+06" y1="7797.18" x2="1.03669e+06" y2="2141.19" gradientUnits="userSpaceOnUse">
<stop stop-color="#592CB8"/>
<stop offset="1" stop-color="#2C2C32"/>
</linearGradient>
<linearGradient id="paint36_linear_115_710" x1="1.03667e+06" y1="7662.12" x2="1.03667e+06" y2="2102.32" gradientUnits="userSpaceOnUse">
<stop stop-color="#592CB8"/>
<stop offset="1" stop-color="#2C2C32"/>
</linearGradient>
<linearGradient id="paint37_linear_115_710" x1="1.03669e+06" y1="7500.65" x2="1.03669e+06" y2="2056.45" gradientUnits="userSpaceOnUse">
<stop stop-color="#592CB8"/>
<stop offset="1" stop-color="#2C2C32"/>
</linearGradient>
<linearGradient id="paint38_linear_115_710" x1="1.03667e+06" y1="7320.63" x2="1.03667e+06" y2="2005.74" gradientUnits="userSpaceOnUse">
<stop stop-color="#592CB8"/>
<stop offset="1" stop-color="#2C2C32"/>
</linearGradient>
<linearGradient id="paint39_linear_115_710" x1="1.03667e+06" y1="7116.78" x2="1.03667e+06" y2="1948.75" gradientUnits="userSpaceOnUse">
<stop stop-color="#592CB8"/>
<stop offset="1" stop-color="#2C2C32"/>
</linearGradient>
<linearGradient id="paint40_linear_115_710" x1="1.03666e+06" y1="6890.54" x2="1.03666e+06" y2="1885.85" gradientUnits="userSpaceOnUse">
<stop stop-color="#592CB8"/>
<stop offset="1" stop-color="#2C2C32"/>
</linearGradient>
<linearGradient id="paint41_linear_115_710" x1="1.03667e+06" y1="6657.19" x2="1.03667e+06" y2="1821.17" gradientUnits="userSpaceOnUse">
<stop stop-color="#592CB8"/>
<stop offset="1" stop-color="#2C2C32"/>
</linearGradient>
<linearGradient id="paint42_linear_115_710" x1="1.03667e+06" y1="6404.99" x2="1.03667e+06" y2="1751.53" gradientUnits="userSpaceOnUse">
<stop stop-color="#592CB8"/>
<stop offset="1" stop-color="#2C2C32"/>
</linearGradient>
<linearGradient id="paint43_linear_115_710" x1="1.03667e+06" y1="6150.86" x2="1.03667e+06" y2="1681.49" gradientUnits="userSpaceOnUse">
<stop stop-color="#592CB8"/>
<stop offset="1" stop-color="#2C2C32"/>
</linearGradient>
<linearGradient id="paint44_linear_115_710" x1="1.03667e+06" y1="5883.44" x2="1.03667e+06" y2="1607.99" gradientUnits="userSpaceOnUse">
<stop stop-color="#592CB8"/>
<stop offset="1" stop-color="#2C2C32"/>
</linearGradient>
<linearGradient id="paint45_linear_115_710" x1="1.03667e+06" y1="5617.23" x2="1.03667e+06" y2="1534.93" gradientUnits="userSpaceOnUse">
<stop stop-color="#592CB8"/>
<stop offset="1" stop-color="#2C2C32"/>
</linearGradient>
<linearGradient id="paint46_linear_115_710" x1="1.03662e+06" y1="5356.62" x2="1.03662e+06" y2="1463.5" gradientUnits="userSpaceOnUse">
<stop stop-color="#592CB8"/>
<stop offset="1" stop-color="#2C2C32"/>
</linearGradient>
<linearGradient id="paint47_linear_115_710" x1="1.03671e+06" y1="5077.5" x2="1.03671e+06" y2="1387.19" gradientUnits="userSpaceOnUse">
<stop stop-color="#592CB8"/>
<stop offset="1" stop-color="#2C2C32"/>
</linearGradient>
<linearGradient id="paint48_linear_115_710" x1="1.03667e+06" y1="4905.41" x2="1.03667e+06" y2="1339.83" gradientUnits="userSpaceOnUse">
<stop stop-color="#592CB8"/>
<stop offset="1" stop-color="#2C2C32"/>
</linearGradient>
<linearGradient id="paint49_linear_115_710" x1="1.03667e+06" y1="4693.35" x2="1.03667e+06" y2="1281.8" gradientUnits="userSpaceOnUse">
<stop stop-color="#592CB8"/>
<stop offset="1" stop-color="#2C2C32"/>
</linearGradient>
<linearGradient id="paint50_linear_115_710" x1="1.03669e+06" y1="4524.79" x2="1.03669e+06" y2="1235.62" gradientUnits="userSpaceOnUse">
<stop stop-color="#592CB8"/>
<stop offset="1" stop-color="#2C2C32"/>
</linearGradient>
<linearGradient id="paint51_linear_115_710" x1="1.03667e+06" y1="4388.43" x2="1.03667e+06" y2="1198.2" gradientUnits="userSpaceOnUse">
<stop stop-color="#592CB8"/>
<stop offset="1" stop-color="#2C2C32"/>
</linearGradient>
<linearGradient id="paint52_linear_115_710" x1="1.03664e+06" y1="4275.06" x2="1.03664e+06" y2="1167.04" gradientUnits="userSpaceOnUse">
<stop stop-color="#592CB8"/>
<stop offset="1" stop-color="#2C2C32"/>
</linearGradient>
<linearGradient id="paint53_linear_115_710" x1="1.03665e+06" y1="4178.62" x2="1.03665e+06" y2="1140.55" gradientUnits="userSpaceOnUse">
<stop stop-color="#592CB8"/>
<stop offset="1" stop-color="#2C2C32"/>
</linearGradient>
<linearGradient id="paint54_linear_115_710" x1="1.03664e+06" y1="4100.18" x2="1.03664e+06" y2="1118.96" gradientUnits="userSpaceOnUse">
<stop stop-color="#592CB8"/>
<stop offset="1" stop-color="#2C2C32"/>
</linearGradient>
<linearGradient id="paint55_linear_115_710" x1="1.03666e+06" y1="4102.64" x2="1.03666e+06" y2="1118.79" gradientUnits="userSpaceOnUse">
<stop stop-color="#592CB8"/>
<stop offset="1" stop-color="#2C2C32"/>
</linearGradient>
<linearGradient id="paint56_linear_115_710" x1="1.0367e+06" y1="4209.49" x2="1.0367e+06" y2="1146.2" gradientUnits="userSpaceOnUse">
<stop stop-color="#592CB8"/>
<stop offset="1" stop-color="#2C2C32"/>
</linearGradient>
<linearGradient id="paint57_linear_115_710" x1="1.03668e+06" y1="4320.19" x2="1.03668e+06" y2="1174.75" gradientUnits="userSpaceOnUse">
<stop stop-color="#592CB8"/>
<stop offset="1" stop-color="#2C2C32"/>
</linearGradient>
<linearGradient id="paint58_linear_115_710" x1="1.03667e+06" y1="4432.85" x2="1.03667e+06" y2="1203.94" gradientUnits="userSpaceOnUse">
<stop stop-color="#592CB8"/>
<stop offset="1" stop-color="#2C2C32"/>
</linearGradient>
<linearGradient id="paint59_linear_115_710" x1="1.03664e+06" y1="4548.74" x2="1.03664e+06" y2="1234.08" gradientUnits="userSpaceOnUse">
<stop stop-color="#592CB8"/>
<stop offset="1" stop-color="#2C2C32"/>
</linearGradient>
<linearGradient id="paint60_linear_115_710" x1="1.03664e+06" y1="4656.16" x2="1.03664e+06" y2="1262.08" gradientUnits="userSpaceOnUse">
<stop stop-color="#592CB8"/>
<stop offset="1" stop-color="#2C2C32"/>
</linearGradient>
<linearGradient id="paint61_linear_115_710" x1="1.03667e+06" y1="4761.19" x2="1.03667e+06" y2="1289.53" gradientUnits="userSpaceOnUse">
<stop stop-color="#592CB8"/>
<stop offset="1" stop-color="#2C2C32"/>
</linearGradient>
<linearGradient id="paint62_linear_115_710" x1="1.03667e+06" y1="4858.06" x2="1.03667e+06" y2="1314.89" gradientUnits="userSpaceOnUse">
<stop stop-color="#592CB8"/>
<stop offset="1" stop-color="#2C2C32"/>
</linearGradient>
<linearGradient id="paint63_linear_115_710" x1="1.03667e+06" y1="4946.98" x2="1.03667e+06" y2="1338.21" gradientUnits="userSpaceOnUse">
<stop stop-color="#592CB8"/>
<stop offset="1" stop-color="#2C2C32"/>
</linearGradient>
<linearGradient id="paint64_linear_115_710" x1="1.03667e+06" y1="5032.22" x2="1.03667e+06" y2="1360.66" gradientUnits="userSpaceOnUse">
<stop stop-color="#592CB8"/>
<stop offset="1" stop-color="#2C2C32"/>
</linearGradient>
<linearGradient id="paint65_linear_115_710" x1="1.03667e+06" y1="5096.37" x2="1.03667e+06" y2="1377.53" gradientUnits="userSpaceOnUse">
<stop stop-color="#592CB8"/>
<stop offset="1" stop-color="#2C2C32"/>
</linearGradient>
<linearGradient id="paint66_linear_115_710" x1="1.03667e+06" y1="5152.1" x2="1.03667e+06" y2="1392.26" gradientUnits="userSpaceOnUse">
<stop stop-color="#592CB8"/>
<stop offset="1" stop-color="#2C2C32"/>
</linearGradient>
<linearGradient id="paint67_linear_115_710" x1="1.03664e+06" y1="5186.15" x2="1.03664e+06" y2="1401.25" gradientUnits="userSpaceOnUse">
<stop stop-color="#592CB8"/>
<stop offset="1" stop-color="#2C2C32"/>
</linearGradient>
<linearGradient id="paint68_linear_115_710" x1="1.0367e+06" y1="5157.78" x2="1.0367e+06" y2="1393.51" gradientUnits="userSpaceOnUse">
<stop stop-color="#592CB8"/>
<stop offset="1" stop-color="#2C2C32"/>
</linearGradient>
</defs>
</svg>
