<svg width="127" height="24" viewBox="0 0 127 24" fill="none" xmlns="http://www.w3.org/2000/svg">
<path d="M5.58831 15.3866C5.33498 15.1021 5.18571 14.7394 5.16515 14.3582V9.60493C5.18565 9.22372 5.33492 8.86093 5.58831 8.57652L5.92296 8.24017C6.03519 8.12715 6.09821 7.97402 6.09821 7.81435C6.09821 7.65468 6.03519 7.50154 5.92296 7.38853L2.37323 3.82025C2.26067 3.70758 2.10828 3.64432 1.9494 3.64432C1.79053 3.64432 1.63814 3.70758 1.52558 3.82025L0.174372 5.17835C0.062668 5.29163 0 5.44467 0 5.60417C0 5.76366 0.062668 5.9167 0.174372 6.02999L2.70788 8.57641C2.96171 8.86058 3.11119 9.22348 3.13148 9.60483V14.3581C3.11124 14.7393 2.96175 15.1019 2.70788 15.3858L0.174372 17.9332C0.062668 18.0465 0 18.1996 0 18.359C0 18.5185 0.062668 18.6716 0.174372 18.7849L1.52558 20.1429C1.63815 20.2556 1.79054 20.3188 1.9494 20.3188C2.10827 20.3188 2.26066 20.2556 2.37323 20.1429L5.92296 16.5744C6.03518 16.4613 6.0982 16.3082 6.0982 16.1486C6.0982 15.9889 6.03518 15.8358 5.92296 15.7228L5.58831 15.3866Z" fill="url(#paint0_linear_115_836)"/>
<path d="M15.3443 18.383C15.0614 18.6376 14.7006 18.7878 14.3213 18.8089H9.59351C9.214 18.7878 8.85291 18.6377 8.56963 18.383L8.23577 18.0457C8.1228 17.9334 7.97038 17.8705 7.81155 17.8705C7.65271 17.8705 7.50028 17.9334 7.38733 18.0457L3.83805 21.614C3.72599 21.7274 3.66309 21.8806 3.66309 22.0404C3.66309 22.2001 3.72599 22.3534 3.83805 22.4666L5.18925 23.8248C5.30207 23.9371 5.45442 24 5.61319 24C5.77196 24 5.92431 23.9371 6.03713 23.8248L8.57008 21.277C8.85328 21.0225 9.21425 20.8724 9.59361 20.8514H14.3228C14.7021 20.8723 15.0629 21.0224 15.3458 21.277L17.8799 23.8248C17.9926 23.9371 18.1449 24 18.3036 24C18.4623 24 18.6146 23.9371 18.7273 23.8248L20.0785 22.4666C20.1906 22.3534 20.2535 22.2001 20.2535 22.0404C20.2535 21.8806 20.1906 21.7274 20.0785 21.614L16.5266 18.0455C16.414 17.9332 16.2617 17.8703 16.1031 17.8703C15.9444 17.8703 15.7921 17.9332 15.6794 18.0455L15.3443 18.383Z" fill="url(#paint1_linear_115_836)"/>
<path d="M18.4108 8.61318C18.6647 8.89789 18.8145 9.26122 18.8351 9.64307V14.3946C18.8144 14.7762 18.6646 15.1392 18.4108 15.4236L18.076 15.7607C17.9641 15.874 17.9014 16.027 17.9014 16.1866C17.9014 16.3461 17.9641 16.4992 18.076 16.6124L21.6267 20.1803C21.7393 20.2929 21.8918 20.3561 22.0505 20.3561C22.2094 20.3561 22.3617 20.2929 22.4743 20.1803L23.8255 18.8214C23.9376 18.7083 24.0006 18.5552 24.0006 18.3955C24.0006 18.2359 23.9376 18.0827 23.8255 17.9697L21.2926 15.4232C21.0386 15.1388 20.8887 14.7757 20.868 14.3941L20.8687 9.64262C20.8891 9.26079 21.0386 8.89745 21.2926 8.61272L23.8255 6.0663C23.9376 5.95342 24.0006 5.80043 24.0006 5.64093C24.0006 5.48144 23.9376 5.32845 23.8255 5.21557L22.4743 3.85668C22.4186 3.80075 22.3526 3.75637 22.2799 3.7261C22.2071 3.69583 22.1293 3.68024 22.0505 3.68024C21.9719 3.68024 21.8939 3.69583 21.8212 3.7261C21.7484 3.75637 21.6824 3.80075 21.6267 3.85668L18.076 7.42439C17.9641 7.53759 17.9014 7.69069 17.9014 7.85027C17.9014 8.00985 17.9641 8.16294 18.076 8.27615L18.4108 8.61318Z" fill="url(#paint2_linear_115_836)"/>
<path d="M8.65251 5.61689C8.93534 5.36193 9.29633 5.21168 9.67571 5.19102H14.4039C14.7832 5.21204 15.144 5.36224 15.427 5.61689L15.7625 5.95392C15.818 6.00985 15.884 6.0542 15.9567 6.08447C16.0294 6.11473 16.1073 6.13032 16.1859 6.13032C16.2645 6.13032 16.3425 6.11473 16.4151 6.08447C16.4878 6.0542 16.5538 6.00985 16.6094 5.95392L20.1596 2.38542C20.2716 2.27213 20.3345 2.11888 20.3345 1.95915C20.3345 1.79942 20.2716 1.64617 20.1596 1.53288L18.8084 0.176371C18.696 0.0634371 18.5435 0 18.3845 0C18.2255 0 18.0731 0.0634371 17.9606 0.176371L15.4271 2.7228C15.1441 2.97744 14.7833 3.12764 14.4041 3.14866H9.67571C9.29633 3.128 8.93534 2.97775 8.65251 2.7228L6.11899 0.176371C6.00618 0.0641245 5.85386 0.00116048 5.69511 0.00116048C5.53637 0.00116048 5.38405 0.0641245 5.27122 0.176371L3.92002 1.53446C3.808 1.64774 3.74512 1.80096 3.74512 1.96068C3.74512 2.12039 3.808 2.27361 3.92002 2.38689L7.46942 5.95381C7.58187 6.06675 7.73433 6.13018 7.8933 6.13018C8.05226 6.13018 8.20473 6.06675 8.31718 5.95381L8.65251 5.61689Z" fill="url(#paint3_linear_115_836)"/>
<path d="M35.475 18C34.791 18 34.203 17.754 33.711 17.262C33.219 16.77 32.973 16.182 32.973 15.498V5.04H35.349V14.976C35.349 15.312 35.367 15.504 35.403 15.552C35.451 15.588 35.643 15.606 35.979 15.606H42.909C43.233 15.606 43.419 15.588 43.467 15.552C43.515 15.504 43.539 15.312 43.539 14.976V5.04H45.933V15.498C45.933 16.182 45.687 16.77 45.195 17.262C44.703 17.754 44.115 18 43.431 18H35.475ZM47.8972 18V5.058H58.3372C59.0332 5.058 59.6272 5.31 60.1192 5.814C60.6112 6.306 60.8572 6.888 60.8572 7.56V11.052C60.8572 11.736 60.6112 12.324 60.1192 12.816C59.6272 13.308 59.0332 13.554 58.3372 13.554H57.6352L60.8392 17.334V18H58.2472L54.5212 13.554L50.2732 13.572V18H47.8972ZM50.9032 11.16H57.8332C58.1572 11.16 58.3372 11.142 58.3732 11.106C58.4212 11.07 58.4452 10.884 58.4452 10.548V8.064C58.4452 7.728 58.4212 7.542 58.3732 7.506C58.3372 7.458 58.1572 7.434 57.8332 7.434H50.9032C50.5672 7.434 50.3752 7.458 50.3272 7.506C50.2912 7.542 50.2732 7.728 50.2732 8.064V10.548C50.2732 10.884 50.2912 11.07 50.3272 11.106C50.3752 11.142 50.5672 11.16 50.9032 11.16ZM68.2887 18V5.022H70.6647V15.606H81.2487V18H68.2887ZM84.764 18C84.08 18 83.492 17.754 83 17.262C82.508 16.77 82.262 16.182 82.262 15.498V7.542C82.262 6.858 82.508 6.27 83 5.778C83.492 5.286 84.08 5.04 84.764 5.04H92.72C93.404 5.04 93.992 5.286 94.484 5.778C94.976 6.27 95.222 6.858 95.222 7.542V15.498C95.222 16.182 94.976 16.77 94.484 17.262C93.992 17.754 93.404 18 92.72 18H84.764ZM85.268 15.606H92.198C92.522 15.606 92.708 15.588 92.756 15.552C92.804 15.504 92.828 15.312 92.828 14.976V8.064C92.828 7.728 92.804 7.542 92.756 7.506C92.708 7.458 92.522 7.434 92.198 7.434H85.268C84.932 7.434 84.74 7.458 84.692 7.506C84.656 7.542 84.638 7.728 84.638 8.064V14.976C84.638 15.312 84.656 15.504 84.692 15.552C84.74 15.588 84.932 15.606 85.268 15.606ZM99.7063 18C99.0223 18 98.4343 17.754 97.9423 17.262C97.4503 16.77 97.2043 16.182 97.2043 15.498V7.542C97.2043 6.858 97.4503 6.27 97.9423 5.778C98.4343 5.286 99.0223 5.04 99.7063 5.04H107.644C108.34 5.04 108.934 5.286 109.426 5.778C109.918 6.27 110.164 6.858 110.164 7.542V8.55H107.77V8.064C107.77 7.728 107.746 7.542 107.698 7.506C107.65 7.458 107.464 7.434 107.14 7.434H100.21C99.8743 7.434 99.6823 7.458 99.6343 7.506C99.5983 7.542 99.5803 7.728 99.5803 8.064V14.976C99.5803 15.312 99.5983 15.504 99.6343 15.552C99.6823 15.588 99.8743 15.606 100.21 15.606H107.14C107.464 15.606 107.65 15.588 107.698 15.552C107.746 15.504 107.77 15.312 107.77 14.976V13.05H104.836V10.656H110.164V15.498C110.164 16.182 109.918 16.77 109.426 17.262C108.934 17.754 108.34 18 107.644 18H99.7063ZM114.612 18C113.928 18 113.34 17.754 112.848 17.262C112.356 16.77 112.11 16.182 112.11 15.498V7.542C112.11 6.858 112.356 6.27 112.848 5.778C113.34 5.286 113.928 5.04 114.612 5.04H122.568C123.252 5.04 123.84 5.286 124.332 5.778C124.824 6.27 125.07 6.858 125.07 7.542V15.498C125.07 16.182 124.824 16.77 124.332 17.262C123.84 17.754 123.252 18 122.568 18H114.612ZM115.116 15.606H122.046C122.37 15.606 122.556 15.588 122.604 15.552C122.652 15.504 122.676 15.312 122.676 14.976V8.064C122.676 7.728 122.652 7.542 122.604 7.506C122.556 7.458 122.37 7.434 122.046 7.434H115.116C114.78 7.434 114.588 7.458 114.54 7.506C114.504 7.542 114.486 7.728 114.486 8.064V14.976C114.486 15.312 114.504 15.504 114.54 15.552C114.588 15.588 114.78 15.606 115.116 15.606Z" fill="url(#paint4_linear_115_836)"/>
<defs>
<linearGradient id="paint0_linear_115_836" x1="-1.77076e-08" y1="15.0442" x2="6.09821" y2="15.0442" gradientUnits="userSpaceOnUse">
<stop stop-color="#4341ED"/>
<stop offset="1" stop-color="#7D3BEE"/>
</linearGradient>
<linearGradient id="paint1_linear_115_836" x1="3.66309" y1="22.061" x2="20.2535" y2="22.061" gradientUnits="userSpaceOnUse">
<stop stop-color="#4341ED"/>
<stop offset="1" stop-color="#7D3BEE"/>
</linearGradient>
<linearGradient id="paint2_linear_115_836" x1="17.9014" y1="15.0811" x2="24.0006" y2="15.0811" gradientUnits="userSpaceOnUse">
<stop stop-color="#4341ED"/>
<stop offset="1" stop-color="#7D3BEE"/>
</linearGradient>
<linearGradient id="paint3_linear_115_836" x1="3.74512" y1="4.19114" x2="20.3345" y2="4.19114" gradientUnits="userSpaceOnUse">
<stop stop-color="#4341ED"/>
<stop offset="1" stop-color="#7D3BEE"/>
</linearGradient>
<linearGradient id="paint4_linear_115_836" x1="32.001" y1="15.7245" x2="127.001" y2="15.7245" gradientUnits="userSpaceOnUse">
<stop stop-color="#4341ED"/>
<stop offset="1" stop-color="#7D3BEE"/>
</linearGradient>
</defs>
</svg>
