<svg width="1440" height="1054" viewBox="0 0 1440 1054" fill="none" xmlns="http://www.w3.org/2000/svg">
<g opacity="0.44">
<path d="M1422 719.782L693 545.412" stroke="#FFCDFA" stroke-width="2"/>
<path d="M1421.5 735.513L693 545.413" stroke="#FFCDFA" stroke-width="2"/>
<path d="M1422 754.443L693 545.413" stroke="#FFCDFA" stroke-width="2"/>
<path d="M1422 777.906L693 545.413" stroke="#FFCDFA" stroke-width="2"/>
<path d="M1422 807.234L693 545.413" stroke="#FFCDFA" stroke-width="2"/>
<path d="M1422 844.561L693 545.413" stroke="#FFCDFA" stroke-width="2"/>
<path d="M1422 894.686L693 545.413" stroke="#FFCDFA" stroke-width="2"/>
<path d="M1422 965.074L693 545.413" stroke="#FFCDFA" stroke-width="2"/>
<path d="M1329.11 1004L693 545.413" stroke="#FFCDFA" stroke-width="2"/>
<path d="M1167.56 1004L693 545.413" stroke="#FFCDFA" stroke-width="2"/>
<path d="M1007.02 1004L693 545.413" stroke="#FFCDFA" stroke-width="2"/>
<path d="M846.474 1004L693 545.413" stroke="#FFCDFA" stroke-width="2"/>
<path d="M686.942 1004L693 545.413" stroke="#FFCDFA" stroke-width="2"/>
<path d="M-36 719.783L693 545.413" stroke="#FFCDFA" stroke-width="2"/>
<path d="M-35.4956 735.513L693 545.413" stroke="#FFCDFA" stroke-width="2"/>
<path d="M-36 754.443L693 545.413" stroke="#FFCDFA" stroke-width="2"/>
<path d="M-36 777.906L693 545.413" stroke="#FFCDFA" stroke-width="2"/>
<path d="M-36 807.234L693 545.413" stroke="#FFCDFA" stroke-width="2"/>
<path d="M-36 844.561L693 545.413" stroke="#FFCDFA" stroke-width="2"/>
<path d="M-36 894.686L693 545.413" stroke="#FFCDFA" stroke-width="2"/>
<path d="M-36 965.074L693 545.413" stroke="#FFCDFA" stroke-width="2"/>
<path d="M56.8916 1004L693 545.413" stroke="#FFCDFA" stroke-width="2"/>
<path d="M218.443 1004L693 545.413" stroke="#FFCDFA" stroke-width="2"/>
<path d="M378.985 1004L693 545.413" stroke="#FFCDFA" stroke-width="2"/>
<path d="M539.526 1004L692.999 545.413" stroke="#FFCDFA" stroke-width="2"/>
<path d="M1422 948.01L-31.9612 948.01" stroke="#FFCDFA" stroke-width="2"/>
<path d="M1422 903.751L-31.9612 903.751" stroke="#FFCDFA" stroke-width="2"/>
<path d="M1422 867.491L-31.9612 867.491" stroke="#FFCDFA" stroke-width="2"/>
<path d="M1422 838.696L-31.9612 838.696" stroke="#FFCDFA" stroke-width="2"/>
<path d="M1422 814.166L-31.9612 814.167" stroke="#FFCDFA" stroke-width="2"/>
<path d="M1422 793.903L-31.9612 793.903" stroke="#FFCDFA" stroke-width="2"/>
<path d="M1422 776.306L-31.9612 776.306" stroke="#FFCDFA" stroke-width="2"/>
<path d="M1422 760.842L-31.9612 760.842" stroke="#FFCDFA" stroke-width="2"/>
<path d="M1422 746.977L-31.9612 746.977" stroke="#FFCDFA" stroke-width="2"/>
<path d="M1422 735.246L-31.9612 735.246" stroke="#FFCDFA" stroke-width="2"/>
<path d="M1422 725.114L-31.9612 725.114" stroke="#FFCDFA" stroke-width="2"/>
<path d="M1422 715.516L-31.9612 715.516" stroke="#FFCDFA" stroke-width="2"/>
<rect x="1422" y="1004" width="1451" height="1024" transform="rotate(180 1422 1004)" fill="url(#paint0_linear_1077_169)"/>
<rect x="-48" y="858" width="1519" height="196" fill="url(#paint1_linear_1077_169)"/>
</g>
<defs>
<linearGradient id="paint0_linear_1077_169" x1="2147.5" y1="980.5" x2="2147.5" y2="2028" gradientUnits="userSpaceOnUse">
<stop stop-color="#111137" stop-opacity="0.4"/>
<stop offset="0.306976" stop-color="#101029"/>
</linearGradient>
<linearGradient id="paint1_linear_1077_169" x1="711.5" y1="853.502" x2="711.5" y2="1054" gradientUnits="userSpaceOnUse">
<stop stop-color="#111137" stop-opacity="0.4"/>
<stop offset="0.306976" stop-color="#101029"/>
</linearGradient>
</defs>
</svg>
