<svg width="800" height="660" viewBox="0 0 800 660" fill="none" xmlns="http://www.w3.org/2000/svg">
<path opacity="0.3" fill-rule="evenodd" clip-rule="evenodd" d="M148.599 -51.1412C310.118 -181.888 547.637 -167.236 691.65 -12.9966C835.663 141.243 834.012 379.208 692.509 531.392L148.599 -51.1412ZM146.269 -49.2407L690.453 533.586C684.631 539.755 678.576 545.78 672.29 551.65C665.26 558.214 658.056 564.475 650.694 570.434L106.784 -12.0989C113.234 -19.0351 119.974 -25.7932 127.004 -32.357C133.29 -38.2267 139.716 -43.8545 146.269 -49.2407ZM600.706 604.966C616.341 595.843 631.503 585.563 646.07 574.121L102.789 -7.73842C90.3766 6.01109 79.0821 20.4333 68.91 35.4071L600.706 604.966ZM62.2454 45.5477L590.132 610.92C573.185 620.125 555.727 628.006 537.907 634.569L35.0744 96.0303C42.8425 78.7013 51.9012 61.8243 62.2454 45.5477ZM458.211 654.867C478.908 651.819 499.423 647.141 519.549 640.825L27.5755 113.916C19.8963 133.563 13.8238 153.709 9.36521 174.149L458.211 654.867ZM4.15162 203.121L428.949 658.084C403.564 659.935 378.05 659.369 352.782 656.397L0.618188 279.225C-0.616085 253.813 0.565967 228.321 4.15162 203.121ZM107.643 532.289C52.6025 473.34 18.8392 402.162 6.02869 328.216L304.277 647.643C231.383 629.798 162.684 591.238 107.643 532.289Z" fill="url(#paint0_radial_115_439)"/>
<defs>
<radialGradient id="paint0_radial_115_439" cx="0" cy="0" r="1" gradientUnits="userSpaceOnUse" gradientTransform="translate(-212.769 319.808) rotate(-0.304789) scale(1021.98)">
<stop stop-color="#FF39B0"/>
<stop offset="0.223324" stop-color="#7C1B6D"/>
<stop offset="1" stop-color="#191717"/>
</radialGradient>
</defs>
</svg>
